<svg xmlns="http://www.w3.org/2000/svg" width="140" height="25" viewBox="0 0 140 25" fill="none"><path d="M121.818 23.3992C122.229 23.3992 122.597 23.3559 122.9 23.2694C123.202 23.1829 123.44 23.0315 123.635 22.8369C123.829 22.6423 123.981 22.3828 124.067 22.08C124.154 21.7772 124.197 21.4096 124.197 20.9771C124.197 20.5446 124.154 20.1769 124.067 19.8742C123.981 19.5714 123.829 19.3119 123.635 19.1173C123.44 18.9226 123.202 18.7712 122.9 18.6847C122.597 18.5982 122.251 18.555 121.818 18.555H120.65V23.3992H121.818ZM122.099 18.0792C122.986 18.1008 123.635 18.3387 124.089 18.8145C124.543 19.2903 124.759 20.0039 124.759 20.9554C124.759 21.907 124.543 22.6423 124.089 23.0964C123.635 23.5722 122.986 23.8101 122.099 23.8317H120.11V18.0576H122.099V18.0792ZM111.762 18.0792L115.136 22.9666H115.158V18.0792H115.698V23.8533H115.071L111.697 18.9659H111.676V23.8533H111.135V18.0792H111.762ZM105.123 18.0792L107.394 23.8533H106.81L106.096 22.0584H103.458L102.766 23.8533H102.182L104.496 18.0792H105.123ZM105.902 21.6042L104.777 18.6415L103.609 21.6042H105.902ZM95.7808 18.0792V23.3992H99.0247V23.8749H95.2402V18.1008H95.7808V18.0792ZM91.1961 18.0792V18.555H87.7576V20.6527H90.9799V21.1285H87.7576V23.4208H91.2394V23.8966H87.217V18.1225H91.1961V18.0792ZM81.205 18.0792C81.4429 18.0792 81.6592 18.1008 81.8754 18.1657C82.0917 18.2306 82.2647 18.3171 82.4377 18.4469C82.5891 18.5766 82.7188 18.728 82.827 18.9226C82.9135 19.1173 82.9783 19.3335 82.9783 19.593C82.9783 19.9607 82.8918 20.285 82.6972 20.5446C82.5026 20.8041 82.2214 20.9771 81.8538 21.0636V21.0852C82.0484 21.1068 82.1998 21.1717 82.3296 21.2366C82.4593 21.3015 82.5458 21.4096 82.6323 21.5177C82.7188 21.6258 82.7621 21.7556 82.8053 21.907C82.8486 22.0584 82.8702 22.2097 82.8702 22.3828C82.8702 22.4693 82.8918 22.599 82.8918 22.7288C82.8918 22.8585 82.9135 23.0099 82.9351 23.1613C82.9567 23.3127 82.9783 23.4424 83.0216 23.5722C83.0648 23.7019 83.1081 23.7884 83.173 23.8749H82.5674C82.5458 23.8317 82.5026 23.7452 82.4809 23.6803C82.4593 23.5938 82.4377 23.5289 82.4377 23.4424C82.4377 23.3559 82.4161 23.2694 82.4161 23.2045C82.4161 23.118 82.3944 23.0532 82.3944 22.9883C82.3944 22.7936 82.3728 22.5774 82.3512 22.3828C82.3296 22.1881 82.2863 21.9935 82.1998 21.8421C82.1133 21.6907 82.0052 21.561 81.8538 21.4528C81.7024 21.3663 81.5078 21.3231 81.2483 21.3231H79.1506V23.8966H78.6099V18.1225H81.205V18.0792ZM81.1618 20.8257C81.3348 20.8257 81.4861 20.8041 81.6375 20.7392C81.7889 20.6743 81.9187 20.6094 82.0268 20.5229C82.1349 20.4364 82.2214 20.3067 82.3079 20.1769C82.3728 20.0472 82.4161 19.8742 82.4161 19.7012C82.4161 19.3551 82.3079 19.074 82.1133 18.8577C81.9187 18.6631 81.5943 18.555 81.1834 18.555H79.1289V20.8257H81.1618ZM74.1118 23.8533H73.5711V18.0792H74.1118V23.8533ZM60.0982 22.7071C60.1847 22.9018 60.3361 23.0748 60.5091 23.1829C60.6821 23.291 60.8768 23.3775 61.1146 23.4424C61.3525 23.4857 61.5904 23.5289 61.8499 23.5289C62.0013 23.5289 62.1743 23.5073 62.3473 23.464C62.5203 23.4208 62.6933 23.3559 62.8447 23.2478C62.9961 23.1613 63.1258 23.0315 63.234 22.8801C63.3421 22.7288 63.3854 22.5558 63.3854 22.3395C63.3854 22.1881 63.3421 22.0367 63.2772 21.9286C63.2123 21.8205 63.1042 21.7124 62.9961 21.6258C62.888 21.5393 62.7582 21.4745 62.6068 21.4312C62.4771 21.388 62.3257 21.3447 62.1959 21.3015L60.8984 20.9771C60.7254 20.9338 60.574 20.8906 60.401 20.8257C60.2496 20.7608 60.0982 20.6743 59.9901 20.5662C59.882 20.4581 59.7738 20.3283 59.709 20.1769C59.6441 20.0255 59.6008 19.8309 59.6008 19.593C59.6008 19.4633 59.6225 19.2903 59.6873 19.0956C59.7306 18.901 59.8387 18.728 59.9901 18.555C60.1415 18.382 60.3361 18.2522 60.5956 18.1225C60.8551 18.0143 61.1795 17.9495 61.5904 17.9495C61.8715 17.9495 62.1527 17.9927 62.4122 18.0576C62.6717 18.1225 62.888 18.2522 63.0826 18.4036C63.2772 18.555 63.4286 18.7496 63.5584 18.9659C63.6665 19.1821 63.7314 19.4416 63.7314 19.7444H63.1691C63.1475 19.5281 63.1042 19.3335 63.0177 19.1605C62.9312 18.9875 62.8231 18.8577 62.6717 18.7496C62.5203 18.6415 62.3689 18.555 62.1743 18.4901C61.9797 18.4252 61.785 18.4036 61.5904 18.4036C61.3958 18.4036 61.2228 18.4252 61.0498 18.4685C60.8768 18.5117 60.7254 18.5766 60.5956 18.6631C60.4659 18.7496 60.3577 18.8794 60.2712 19.0091C60.1847 19.1605 60.1415 19.3335 60.1415 19.5498C60.1415 19.6795 60.1631 19.8093 60.2064 19.8958C60.2496 20.0039 60.3145 20.0904 60.401 20.1553C60.4875 20.2202 60.574 20.285 60.6821 20.3283C60.7903 20.3716 60.8984 20.4148 61.0281 20.4364L62.4338 20.7824C62.6285 20.8257 62.8231 20.9122 63.0177 20.9771C63.1907 21.0636 63.3637 21.1501 63.4935 21.2582C63.6232 21.3663 63.7314 21.5177 63.8179 21.6907C63.9044 21.8637 63.926 22.0584 63.926 22.2963C63.926 22.3611 63.926 22.4476 63.9044 22.5558C63.8827 22.6639 63.8611 22.772 63.8179 22.9018C63.7746 23.0315 63.6881 23.1397 63.6016 23.2694C63.5151 23.3992 63.3854 23.5073 63.2123 23.6154C63.0393 23.7236 62.8447 23.7884 62.6068 23.8533C62.3689 23.9182 62.0662 23.9398 61.7418 23.9398C61.3958 23.9398 61.093 23.8966 60.7903 23.8317C60.5091 23.7452 60.2496 23.637 60.055 23.464C59.8603 23.3127 59.6873 23.0964 59.5792 22.8369C59.4711 22.5774 59.4278 22.2746 59.4278 21.9286H59.9685C59.9469 22.253 59.9901 22.5125 60.0982 22.7071ZM51.4047 18.0792V21.6475C51.4047 21.9719 51.4479 22.2746 51.5128 22.4909C51.5777 22.7288 51.7074 22.9234 51.8372 23.0748C51.9886 23.2262 52.1616 23.3343 52.3778 23.3992C52.5941 23.464 52.832 23.5073 53.0915 23.5073C53.351 23.5073 53.6105 23.464 53.8051 23.3992C54.0214 23.3343 54.1944 23.2262 54.3458 23.0748C54.4971 22.9234 54.6053 22.7288 54.6702 22.4909C54.735 22.253 54.7783 21.9719 54.7783 21.6475V18.0792H55.3189V21.7772C55.3189 22.08 55.2757 22.3611 55.1892 22.6206C55.1027 22.8801 54.9729 23.118 54.7999 23.3127C54.6269 23.5073 54.389 23.6803 54.1079 23.7884C53.8267 23.8966 53.4807 23.9614 53.0698 23.9614C52.6806 23.9614 52.3346 23.8966 52.0534 23.7884C51.7723 23.6803 51.5344 23.5073 51.3614 23.3127C51.1884 23.118 51.0586 22.8801 50.9721 22.6206C50.8856 22.3611 50.8424 22.08 50.8424 21.7772V18.0792H51.4047ZM45.1332 18.0792C45.3927 18.0792 45.6306 18.1225 45.8468 18.1873C46.0631 18.2522 46.2361 18.3604 46.3875 18.5117C46.5389 18.6631 46.647 18.8361 46.7335 19.0308C46.82 19.2254 46.8632 19.4633 46.8632 19.7228C46.8632 19.9823 46.82 20.2202 46.7335 20.4148C46.647 20.6094 46.5389 20.8041 46.3875 20.9338C46.2361 21.0636 46.0631 21.1933 45.8468 21.2582C45.6306 21.3231 45.3927 21.3663 45.1332 21.3663H43.122V23.8533H42.5813V18.0792H45.1332ZM45.025 20.9122C45.4143 20.9122 45.7171 20.8257 45.955 20.6311C46.1928 20.4364 46.301 20.1337 46.301 19.7444C46.301 19.3551 46.1928 19.0524 45.955 18.8577C45.7171 18.6631 45.4143 18.5766 45.025 18.5766H43.122V20.9338H45.025V20.9122ZM32.6767 18.0792V23.8533H33.2174V18.8577H33.239L35.142 23.8533H35.6611L37.629 18.8577H37.6506V23.8533H38.1913V18.0792H37.3911L35.4016 23.1397L33.4769 18.0792H32.6767ZM26.6647 18.0792L28.9354 23.8533H28.3515L27.6379 22.0584H24.9995L24.3075 23.8533H23.7236L26.0376 18.0792H26.6647ZM27.4433 21.6042L26.3187 18.6415L25.1509 21.6042H27.4433ZM19.3985 19.247C19.2903 19.074 19.1606 18.9226 18.9876 18.8145C18.8362 18.7064 18.6632 18.5982 18.4686 18.5334C18.2739 18.4685 18.0793 18.4469 17.863 18.4469C17.4738 18.4469 17.1494 18.5117 16.8682 18.6631C16.5871 18.8145 16.3709 19.0091 16.1978 19.247C16.0248 19.4849 15.8951 19.766 15.8086 20.0688C15.7221 20.3716 15.6788 20.6743 15.6788 20.9987C15.6788 21.3015 15.7221 21.6258 15.8086 21.9286C15.8951 22.2314 16.0248 22.5125 16.1978 22.7504C16.3709 22.9883 16.6087 23.1829 16.8682 23.3343C17.1494 23.4857 17.4738 23.5505 17.863 23.5505C18.1225 23.5505 18.3821 23.5073 18.5983 23.3992C18.8146 23.3127 19.0092 23.1613 19.1606 23.0099C19.312 22.8369 19.4417 22.6423 19.5498 22.426C19.6364 22.2097 19.7012 21.9502 19.7445 21.6907H20.2851C20.2419 22.0367 20.1554 22.3611 20.0256 22.6639C19.8959 22.945 19.7229 23.1829 19.5282 23.3992C19.3336 23.5938 19.0741 23.7452 18.7929 23.8533C18.5118 23.9614 18.209 24.0047 17.863 24.0047C17.4089 24.0047 17.0196 23.9182 16.6736 23.7668C16.3276 23.5938 16.0465 23.3775 15.8302 23.0964C15.614 22.8153 15.4409 22.5125 15.3112 22.1449C15.1814 21.7772 15.1382 21.4096 15.1382 20.9987C15.1382 20.6094 15.2031 20.2202 15.3112 19.8525C15.4193 19.4849 15.5923 19.1605 15.8302 18.901C16.0465 18.6199 16.3492 18.4036 16.6736 18.2306C17.0196 18.0576 17.4089 17.9927 17.863 17.9927C18.1442 17.9927 18.4037 18.036 18.6632 18.1225C18.9227 18.209 19.1606 18.3171 19.3768 18.4901C19.5931 18.6415 19.7661 18.8361 19.9175 19.074C20.0689 19.3119 20.1554 19.5714 20.1986 19.8742H19.658C19.5931 19.6146 19.5066 19.42 19.3985 19.247Z" fill="#DCDDDE"></path><path d="M42.4948 5.06979C42.4948 6.06458 42.4948 7.05937 42.4948 8.05415V8.07578C42.4948 8.22716 42.4948 8.35691 42.711 8.35691C43.7058 8.33529 44.7006 8.37854 45.6738 8.31366C46.9497 8.22716 47.9661 7.40538 48.2472 6.30246C48.4419 5.56718 48.4419 4.78866 48.2905 4.05338C48.0526 2.82071 46.9713 1.93405 45.6305 1.8908C44.679 1.84755 43.7274 1.86917 42.7759 1.84755C42.5164 1.84755 42.4731 1.93405 42.4731 2.17193C42.4948 3.12347 42.4948 4.09663 42.4948 5.06979ZM47.2524 9.37333C47.4903 9.67609 47.7066 9.97885 47.9445 10.2816C48.3986 10.8655 48.8744 11.4494 49.3285 12.0549C49.4583 12.2279 49.5448 12.4658 49.588 12.6821C49.6313 12.9848 49.415 13.266 49.1339 13.3525C48.8311 13.4606 48.5284 13.3741 48.2905 13.1146C47.5336 12.1631 46.7334 11.2115 46.0198 10.2384C45.717 9.82747 45.3926 9.65446 44.8952 9.69771C44.1167 9.74096 43.3165 9.71934 42.5164 9.71934C42.5164 9.84909 42.4948 9.95722 42.4948 10.0437C42.4948 10.8655 42.4948 11.6873 42.4948 12.5307C42.4948 13.1146 42.1055 13.4606 41.5865 13.3525C41.2837 13.2876 41.0891 13.1146 41.0242 12.8335C41.0026 12.7037 40.981 12.5523 40.981 12.4009C40.981 8.72455 40.981 5.02654 40.981 1.35015C40.981 0.593251 41.2188 0.33374 41.9974 0.33374C43.0138 0.33374 44.0086 0.33374 45.025 0.33374C45.8251 0.33374 46.6037 0.441869 47.3389 0.766256C48.6797 1.35015 49.5448 2.36657 49.761 3.81549C49.8692 4.59402 49.8908 5.43743 49.7827 6.21596C49.6097 7.64326 48.7879 8.61642 47.4903 9.24357C47.4254 9.28682 47.3606 9.30845 47.2741 9.3517C47.2957 9.33008 47.2741 9.3517 47.2524 9.37333Z" fill="#64CDF2"></path><path d="M53.6968 11.8603C53.8482 11.8603 53.9563 11.8603 54.086 11.8603C55.7296 11.8603 57.3732 11.8603 59.0167 11.8603C59.5357 11.8603 59.8169 12.0982 59.8601 12.5091C59.9034 12.9849 59.6006 13.3092 59.1248 13.3309C59.06 13.3309 59.0167 13.3309 58.9518 13.3309C57.0055 13.3309 55.0376 13.3309 53.0912 13.3309C52.4857 13.3309 52.2262 13.0714 52.2046 12.4658C52.2046 12.2712 52.2046 12.0982 52.2046 11.9036C52.2046 8.37856 52.2046 4.85355 52.2046 1.32855C52.2046 0.571643 52.4425 0.312134 53.221 0.312134C55.1457 0.312134 57.092 0.312134 59.0167 0.312134C59.5574 0.312134 59.8818 0.636522 59.8385 1.13392C59.8169 1.47993 59.579 1.73944 59.233 1.78269C59.1032 1.80431 58.9518 1.80431 58.8221 1.80431C57.2218 1.80431 55.6215 1.80431 54.0212 1.80431C53.7616 1.80431 53.6751 1.86919 53.6751 2.15033C53.6968 3.31812 53.6968 4.50754 53.6751 5.67533C53.6751 5.91322 53.7616 5.97809 53.9995 5.97809C55.1024 5.97809 56.2054 5.97809 57.2867 5.97809C57.7408 5.97809 58.0436 6.2376 58.0652 6.62687C58.1084 7.10264 57.8057 7.42702 57.2867 7.42702C56.2054 7.42702 55.1241 7.44865 54.0428 7.42702C53.7616 7.42702 53.6535 7.4919 53.6535 7.79466C53.6751 9.02733 53.6535 10.26 53.6535 11.4927V11.8603H53.6968Z" fill="#64CDF2"></path><path d="M8.95302 5.22128C8.95302 3.88048 8.95302 2.53968 8.95302 1.19888C8.95302 1.0475 8.95302 0.874492 8.99627 0.744737C9.08278 0.441976 9.42879 0.247344 9.75318 0.26897C10.0776 0.290596 10.3154 0.485228 10.3803 0.809615C10.402 0.93937 10.4236 1.09075 10.4236 1.24213C10.4236 3.77235 10.4236 6.30257 10.4236 8.83279C10.4236 9.74107 10.6831 10.5412 11.3535 11.1684C12.1969 11.9469 13.2133 12.1848 14.2946 11.8171C15.4408 11.4495 16.0679 10.6061 16.2625 9.43831C16.3058 9.1788 16.3058 8.91929 16.3058 8.65978C16.3058 6.19444 16.3058 3.75072 16.3058 1.28538C16.3058 1.15563 16.3058 1.02587 16.3274 0.917744C16.3707 0.528479 16.6951 0.26897 17.0627 0.26897C17.4303 0.26897 17.7547 0.550105 17.798 0.939369C17.798 1.00425 17.798 1.06912 17.798 1.134C17.798 3.75072 17.8196 6.36745 17.798 8.98417C17.7764 10.6494 17.0843 11.9902 15.6354 12.8552C13.1052 14.369 9.6018 13.0931 8.99627 9.80595C8.9314 9.48156 8.9314 9.13555 8.9314 8.78954C8.95302 7.60012 8.95302 6.4107 8.95302 5.22128Z" fill="#64CDF2"></path><path d="M29.6057 5.19959C29.6057 3.83716 29.6057 2.45311 29.6057 1.09069C29.6057 0.744674 29.7355 0.463539 30.0599 0.312158C30.514 0.117526 30.9682 0.35541 31.0547 0.831178C31.0763 0.982559 31.0763 1.11231 31.0763 1.26369C31.0763 3.77229 31.0763 6.25925 31.0763 8.76785C31.0763 9.78426 31.3574 10.6493 32.1792 11.2981C33.0659 12.0117 34.0823 12.1631 35.1419 11.7522C36.2016 11.3197 36.7855 10.4979 36.9585 9.37337C37.0018 9.11386 37.0018 8.83273 37.0018 8.55159C37.0018 6.1295 37.0018 3.72903 37.0018 1.30694C37.0018 1.17719 37.0018 1.04744 37.0018 0.917681C37.0234 0.528417 37.3262 0.247281 37.6938 0.225655C38.0831 0.204029 38.4074 0.485164 38.4723 0.874429C38.4723 0.960932 38.4723 1.02581 38.4723 1.11231C38.4723 3.72903 38.4723 6.34576 38.4723 8.96248C38.4723 10.9088 37.3478 12.5524 35.5528 13.1795C32.6766 14.1743 29.8004 12.2712 29.6274 9.24362C29.5625 7.90282 29.6274 6.56202 29.6057 5.19959Z" fill="#64CDF2"></path><path d="M1.51381 6.7566C2.48697 6.7566 3.4385 6.7566 4.36841 6.7566C4.6063 6.7566 4.84418 6.7566 5.10369 6.7566C5.57946 6.77823 5.88222 7.05936 5.88222 7.49188C5.88222 7.9244 5.57946 8.20553 5.10369 8.20553C4.0224 8.20553 2.91948 8.22716 1.83819 8.20553C1.57868 8.20553 1.49218 8.27041 1.49218 8.55155C1.51381 9.89235 1.49218 11.2115 1.49218 12.5523C1.49218 13.1362 1.10292 13.4606 0.583897 13.3525C0.302761 13.2876 0.108129 13.1146 0.0432516 12.8335C0 12.7037 0 12.5739 0 12.4442C0 8.70293 0 4.98329 0 1.24202C0 0.614877 0.25951 0.33374 0.908284 0.33374C2.87623 0.33374 4.84418 0.33374 6.7905 0.33374C7.41765 0.33374 7.76366 0.809509 7.56903 1.35015C7.48253 1.58804 7.30952 1.76104 7.05001 1.8043C6.89863 1.82592 6.76888 1.82592 6.6175 1.82592C5.01719 1.82592 3.4385 1.82592 1.83819 1.82592C1.57868 1.82592 1.51381 1.8908 1.51381 2.15031C1.53543 3.59924 1.51381 5.02654 1.51381 6.47547C1.49218 6.54035 1.51381 6.62685 1.51381 6.7566Z" fill="#64CDF2"></path><path d="M22.945 7.3405C22.945 5.61044 22.945 3.88037 22.945 2.15031C22.945 1.86917 22.8585 1.8043 22.599 1.8043C21.6691 1.82592 20.7608 1.82592 19.8309 1.8043C19.3118 1.8043 19.074 1.52316 19.0956 1.00414C19.1172 0.636501 19.2902 0.420243 19.6362 0.355366C19.766 0.33374 19.8957 0.33374 20.0471 0.33374C22.4692 0.33374 24.9129 0.33374 27.335 0.33374C27.4648 0.33374 27.5945 0.33374 27.7027 0.355366C28.1136 0.420243 28.3082 0.723005 28.2649 1.17715C28.2433 1.56641 28.0054 1.8043 27.6162 1.82592C26.6646 1.84755 25.7347 1.84755 24.7832 1.82592C24.502 1.82592 24.4155 1.8908 24.4155 2.19356C24.4372 5.56718 24.4155 8.91918 24.4155 12.2928C24.4155 12.4009 24.4155 12.5091 24.4155 12.6172C24.3939 13.1362 24.1344 13.4174 23.6586 13.4174C23.1829 13.4174 22.945 13.1578 22.945 12.6172C22.945 10.8223 22.945 9.09219 22.945 7.3405Z" fill="#64CDF2"></path><path d="M94.5912 1.69618V5.26444C94.656 5.26444 94.7209 5.28606 94.7858 5.28606C95.8238 5.28606 96.8402 5.28606 97.8783 5.26444C99.3705 5.22119 99.8679 3.92364 99.5651 2.86397C99.3705 2.19357 98.7217 1.73943 97.9215 1.7178C97.0781 1.69618 96.2131 1.69618 95.3481 1.69618C95.0886 1.69618 94.8507 1.69618 94.5912 1.69618ZM94.5912 6.73499C94.5695 6.77824 94.5695 6.77824 94.5695 6.79987C94.5695 8.37855 94.5695 9.95724 94.5695 11.5143C94.5695 11.6657 94.6344 11.7089 94.7858 11.7089C95.8455 11.7089 96.9267 11.7306 97.9864 11.6873C99.5867 11.6224 100.495 10.606 100.473 9.0057C100.452 7.68653 99.7165 6.82149 98.3973 6.73499C97.1646 6.64849 95.932 6.69174 94.6993 6.69174C94.656 6.71337 94.6344 6.71336 94.5912 6.73499ZM99.63 5.78346C99.6949 5.82671 99.7381 5.84833 99.7814 5.86996C101.165 6.36735 101.836 7.38377 101.944 8.81107C102.03 9.82748 101.857 10.8223 101.252 11.6657C100.603 12.574 99.6948 13.0497 98.6136 13.1362C97.489 13.2227 96.3428 13.2011 95.2183 13.2011C94.7858 13.2011 94.3533 13.2011 93.8991 13.2011C93.445 13.2011 93.1639 12.92 93.1206 12.4658C93.1206 12.3793 93.1206 12.2928 93.1206 12.2063C93.1206 8.52993 93.1206 4.85355 93.1206 1.17716C93.1206 0.420257 93.3585 0.182373 94.1154 0.182373C95.2183 0.182373 96.3212 0.182373 97.4025 0.182373C98.0513 0.182373 98.7001 0.24725 99.3056 0.50676C100.755 1.09066 101.447 2.58284 100.971 4.16152C100.755 4.87517 100.3 5.41582 99.63 5.78346Z" fill="#64CDF2"></path><path d="M83.4756 6.69177C83.4756 7.3838 83.4756 8.09745 83.4756 8.78948C83.4756 9.07061 83.4972 9.33012 83.5405 9.58963C83.8216 10.9737 85.0976 11.9901 86.5032 11.9252C87.9738 11.8603 89.1848 10.779 89.293 9.33012C89.3795 8.18395 89.3362 7.03779 89.3362 5.89162C89.3362 5.30772 89.3578 4.72382 89.293 4.13993C89.1416 2.56124 87.844 1.4367 86.287 1.50158C84.7299 1.56646 83.4972 2.82075 83.454 4.39944C83.4756 5.15634 83.4756 5.91324 83.4756 6.69177ZM82.0051 6.7134C82.0051 5.84837 81.9618 4.96171 82.0051 4.09668C82.1997 1.19882 85.0976 -0.704253 87.844 0.247283C89.5525 0.852805 90.7419 2.34499 90.8068 4.18318C90.8716 5.86999 90.8716 7.5568 90.8068 9.22199C90.7203 11.2332 89.3578 12.8119 87.4115 13.2876C84.7948 13.9148 82.1781 12.0333 82.0051 9.35175C81.9618 8.48672 82.0051 7.60006 82.0051 6.7134Z" fill="#64CDF2"></path><path d="M136.07 9.28682C136.07 9.54633 136.07 9.82746 136.07 10.087C136.07 10.8655 136.07 11.644 136.07 12.4226C136.07 13.0065 135.615 13.3525 135.118 13.2227C134.794 13.1362 134.577 12.8334 134.577 12.4226C134.577 11.4926 134.556 10.5627 134.577 9.63283C134.577 9.3517 134.491 9.26519 134.253 9.22194C132.393 8.78942 130.988 7.12424 130.901 5.22116C130.858 3.81549 130.879 2.40981 130.879 1.00413C130.879 0.528366 131.204 0.203979 131.658 0.203979C132.069 0.203979 132.372 0.50674 132.372 1.00413C132.372 2.25843 132.372 3.4911 132.372 4.7454C132.372 5.67531 132.631 6.51871 133.366 7.14586C134.275 7.92439 135.291 8.11902 136.416 7.68651C137.54 7.25399 138.167 6.36733 138.232 5.19954C138.319 3.90199 138.275 2.62607 138.275 1.32852C138.275 1.19877 138.275 1.06901 138.275 0.939257C138.297 0.528367 138.557 0.268857 138.946 0.225605C139.335 0.203979 139.66 0.463489 139.724 0.852754C139.724 0.917631 139.746 0.960883 139.746 1.02576C139.746 2.36656 139.768 3.70736 139.746 5.04816C139.703 6.99448 138.427 8.63804 136.61 9.20031C136.437 9.20031 136.264 9.22194 136.07 9.28682Z" fill="#64CDF2"></path><path d="M125.776 7.23247C125.776 8.89766 125.776 10.5628 125.776 12.228C125.776 12.3578 125.776 12.4875 125.754 12.6173C125.711 13.0282 125.451 13.2661 125.019 13.2661C124.586 13.2661 124.327 13.0282 124.284 12.5957C124.284 12.4659 124.284 12.3362 124.284 12.2064C124.284 8.83278 124.284 5.43753 124.284 2.0639C124.284 1.78277 124.219 1.67464 123.916 1.69626C122.986 1.71789 122.078 1.71789 121.148 1.69626C120.672 1.69626 120.412 1.41513 120.434 0.93936C120.434 0.52847 120.65 0.290585 121.061 0.225708C121.148 0.225708 121.213 0.225708 121.299 0.225708C123.786 0.225708 126.295 0.225708 128.782 0.225708C129.322 0.225708 129.603 0.441966 129.625 0.896108C129.668 1.37188 129.409 1.69626 128.911 1.69626C128.003 1.71789 127.095 1.69626 126.165 1.69626C125.754 1.69626 125.754 1.69626 125.754 2.10715C125.776 3.79397 125.776 5.52403 125.776 7.23247Z" fill="#64CDF2"></path><path d="M109.946 11.7089C110.097 11.7089 110.205 11.7305 110.313 11.7305C111.913 11.7305 113.514 11.7305 115.114 11.7522C115.525 11.7522 115.806 11.9252 115.914 12.2712C116.066 12.7469 115.72 13.2227 115.179 13.2227C114.163 13.2227 113.146 13.2227 112.13 13.2227C111.178 13.2227 110.248 13.2227 109.297 13.2227C108.778 13.2227 108.54 13.0065 108.475 12.4874C108.453 12.3577 108.453 12.2279 108.453 12.1198C108.453 8.48666 108.453 4.85353 108.453 1.22039C108.453 1.06901 108.453 0.917631 108.497 0.76625C108.562 0.420237 108.864 0.203979 109.21 0.203979C109.556 0.203979 109.837 0.420238 109.902 0.744625C109.946 0.896005 109.946 1.04739 109.946 1.19877C109.946 4.57239 109.946 7.96764 109.946 11.3413C109.946 11.4278 109.946 11.5575 109.946 11.7089Z" fill="#64CDF2"></path><path d="M117.45 6.71338C117.45 4.85356 117.45 2.99375 117.45 1.13393C117.45 0.506779 117.709 0.160767 118.185 0.160767C118.682 0.160767 118.942 0.485154 118.942 1.13393C118.942 4.87519 118.942 8.61645 118.942 12.3577C118.942 12.9849 118.574 13.3309 118.034 13.2228C117.752 13.1579 117.536 12.9416 117.471 12.6605C117.45 12.5307 117.45 12.3793 117.45 12.2496C117.45 10.4114 117.45 8.55158 117.45 6.71338Z" fill="#64CDF2"></path><path d="M104.236 6.71336C104.236 4.81029 104.236 2.92884 104.236 1.02577C104.236 0.441876 104.582 0.0958632 105.101 0.182366C105.426 0.225618 105.664 0.463501 105.707 0.787888C105.729 0.917643 105.729 1.0474 105.729 1.15553C105.729 4.85354 105.729 8.55155 105.729 12.2279C105.729 12.3577 105.729 12.4874 105.707 12.5956C105.664 12.9632 105.382 13.2011 105.015 13.2227C104.647 13.2444 104.344 13.0065 104.258 12.6605C104.236 12.5307 104.236 12.4009 104.236 12.2496C104.236 10.433 104.236 8.57318 104.236 6.71336Z" fill="#64CDF2"></path><path d="M79.2153 9.9573V7.55684V6.88644V1.1556V1.04747C79.2153 1.02584 79.2153 1.00422 79.2153 1.00422C79.2153 0.874463 79.1937 0.787961 79.1504 0.701458C79.1072 0.593329 79.0639 0.52845 78.999 0.463572C78.9342 0.398695 78.8693 0.355444 78.7828 0.312193C78.6963 0.290567 78.6098 0.268942 78.5233 0.268942H77.4852C77.3339 0.268942 77.1825 0.290566 77.0744 0.333818C76.9446 0.37707 76.8365 0.441948 76.75 0.506825C76.6418 0.593328 76.5553 0.701457 76.4905 0.852838C76.404 1.00422 76.3391 1.17722 76.2742 1.37186L72.6627 10.844H72.6194L69.1809 1.3286C69.1161 1.1556 69.0512 0.982592 68.9863 0.852838C68.9214 0.723083 68.8133 0.614954 68.7052 0.506825C68.597 0.420322 68.4673 0.355444 68.3159 0.312193C68.1645 0.268941 67.9915 0.247314 67.7969 0.247314H66.8237C66.6507 0.247314 66.4993 0.312193 66.3696 0.420322C66.2398 0.550076 66.1533 0.744709 66.1533 1.02584V10.3249C66.1533 11.017 66.1533 11.7306 66.1533 12.4226C66.1533 12.574 66.1533 12.7038 66.1966 12.8552C66.2831 13.2228 66.6075 13.4607 66.9967 13.4607C67.386 13.4391 67.6888 13.1795 67.732 12.7903C67.7536 12.6605 67.7536 12.5308 67.7536 12.401C67.7536 11.709 67.7536 11.017 67.7536 10.3466V1.69624L71.8193 13.2012C71.8409 13.2444 71.8625 13.2877 71.8842 13.3093C71.9274 13.3526 71.9707 13.3742 72.0355 13.3958C72.1004 13.4174 72.1653 13.4391 72.2734 13.4607C72.3599 13.4823 72.4681 13.4823 72.5978 13.4823C72.7276 13.4823 72.8357 13.4823 72.9222 13.4607C73.0087 13.4607 73.0952 13.4391 73.1601 13.4174C73.225 13.3958 73.2682 13.3742 73.3115 13.3309C73.3547 13.2877 73.3763 13.266 73.398 13.2012L77.6366 1.69624H77.6583V9.97893C77.6583 10.8007 77.6583 11.6441 77.6583 12.4659C77.6583 12.6173 77.6583 12.747 77.6799 12.8984C77.7664 13.266 78.0908 13.5039 78.48 13.5039C78.8693 13.4823 79.1721 13.2228 79.2153 12.8335C79.2369 12.7038 79.2369 12.574 79.2369 12.4443C79.2153 11.5576 79.2153 10.7575 79.2153 9.9573Z" fill="#64CDF2"></path></svg>